# xmcd
#
# Track frame offsets:
#   150
#   25297
#   59222
#   79149
#   105322
#   125937
#   156294
#   169984
#   209757
#   234867
#   262832
#   294594
#
# Disc length: 4279 seconds
#
# Revision: 0
# Processed by: cddbd v1.4PL0 Copyright (c) Steve Scherf et al.
# Submitted via: uFREEDB 1.6.0
#
DISCID=b010b50c
DTITLE=Gary Moore - Blues Alive
DYEAR=1993
DGENRE=Blues
TTITLE0=Cold Day in Hell 
TTITLE1=Walking by Myself 
TTITLE2=Story of the Blues 
TTITLE3=Oh Pretty Woman 
TTITLE4=Separate Ways 
TTITLE5=Too Tired 
TTITLE6=Still Got the Blues 
TTITLE7=Since I Met You Baby 
TTITLE8=The Sky Is Crying
TTITLE9=Further On Up the Road 
TTITLE10=King of the Blues 
TTITLE11=Parisienne Walkways 
EXTD=
EXTT0=
EXTT1=
EXTT2=
EXTT3=
EXTT4=
EXTT5=
EXTT6=
EXTT7=
EXTT8=
EXTT9=
EXTT10=
EXTT11=
PLAYORDER=
